<svg width="579" height="518" viewBox="0 0 579 518" fill="none" xmlns="http://www.w3.org/2000/svg">
<path d="M419.825 0.0323486C375.224 0.0323486 335.173 18.5984 306.315 48.1492L241.116 156.819L338.528 240.31C347.787 248.246 349.674 261.844 342.947 272.022L268.683 384.322L334 496C436.234 439.076 555.514 314.509 574.677 195.371C577.419 183.741 579 171.675 579 159.223C578.984 71.2801 507.719 0.0323486 419.825 0.0323486Z" fill="#DD2E44"/>
<path d="M217.341 396.113C212.55 388.128 212.76 378.095 217.906 370.32L288.799 263.118L192.097 180.224C183.128 172.546 181.031 159.529 187.097 149.399L256.522 33.7124C229.6 12.7268 195.952 0 159.175 0C71.2641 0 0 71.2477 0 159.174C0 171.627 1.58078 183.692 4.29069 195.322C26.3893 332.656 179.064 477.523 288.492 517.3C288.896 517.155 289.331 516.945 289.734 516.784L217.341 396.113Z" fill="#DD2E44"/>
</svg>
