<svg width="65" height="59" viewBox="0 0 65 59" fill="none" xmlns="http://www.w3.org/2000/svg">
<g id="dove">
<path id="Vector" d="M61.6839 8.01628C60.9433 8.01628 60.3423 7.41535 60.3423 6.67675V5.33508C60.3423 4.59459 60.9433 3.99353 61.6839 3.99353C62.4245 3.99353 63.0234 4.59459 63.0234 5.33508V6.67675C63.0234 7.41535 62.4245 8.01628 61.6839 8.01628Z" fill="#AAB2BC"/>
<path id="Vector_2" d="M36.2053 59C35.4647 59 34.8636 58.399 34.8636 57.6604V52.298C34.8636 51.5555 35.4647 50.9545 36.2053 50.9545C36.9459 50.9545 37.547 51.5554 37.547 52.298V57.6604C37.547 58.399 36.9459 59 36.2053 59Z" fill="#F6BB42"/>
<path id="Vector_3" d="M41.5696 59H33.5241C32.7835 59 32.1826 58.3991 32.1826 57.6605C32.1826 56.918 32.7836 56.3208 33.5241 56.3208H41.5696C42.3102 56.3208 42.9093 56.918 42.9093 57.6605C42.9093 58.3991 42.3102 59 41.5696 59Z" fill="#FFCE54"/>
<path id="Vector_4" d="M63.0234 8.01617H57.2642C56.5236 8.01617 55.9246 7.41523 55.9246 6.67663C55.9246 5.93414 56.5237 5.33496 57.2642 5.33496H63.0234C63.764 5.33496 64.3651 5.93414 64.3651 6.67663C64.3651 7.41523 63.764 8.01617 63.0234 8.01617Z" fill="#CCD1D9"/>
<path id="Vector_5" d="M36.2053 37.5817C33.2482 37.5817 30.8419 39.9898 30.8419 42.9481C30.8419 44.3388 31.3693 46.8453 32.0971 48.8999C33.2235 52.0899 34.5671 53.6378 36.2053 53.6378C37.8436 53.6378 39.1871 52.09 40.3147 48.8999C41.0414 46.8453 41.5696 44.3388 41.5696 42.9481C41.5696 39.9898 39.1635 37.5817 36.2053 37.5817Z" fill="#434A54"/>
<g id="Group">
<path id="Vector_6" d="M60.1262 4.72225C60.364 4.35691 60.4071 3.90118 60.2461 3.49649C60.1891 3.35305 58.8003 0 54.3179 0C53.8228 0 53.3025 0.0432474 52.7701 0.12773C49.5348 0.642423 47.5392 4.79693 45.2292 9.60932C43.475 13.2609 41.6619 17.0382 39.3384 19.0948C37.8436 20.4186 33.4239 23.1706 20.8497 28.7689C13.2557 32.1484 6.23548 34.9731 6.16571 35.0045C5.65202 35.2088 5.31711 35.7117 5.3249 36.2656C5.3327 36.8195 5.68043 37.3106 6.20104 37.5031C18.3226 41.9895 28.5653 44.2641 36.6454 44.2641H36.6474C45.1036 44.2641 51.3932 41.793 55.3394 36.9138C60.3916 30.6702 61.519 20.5876 58.6904 6.93981L60.1262 4.72225Z" fill="#656D78"/>
<path id="Vector_7" d="M31.1503 41.2666L12.3767 36.8354C12.0467 36.7607 11.7001 36.8078 11.4054 36.9768L0.677558 43.0855C0.136338 43.392 -0.121008 44.0323 0.0548725 44.6293C0.224844 45.2028 0.750223 45.5918 1.34047 45.5918C1.36599 45.5918 1.39152 45.5918 1.41704 45.5879L30.9186 43.9104C31.5835 43.8712 32.1197 43.3525 32.1777 42.6886C32.2356 42.0247 31.7985 41.4197 31.1503 41.2666Z" fill="#656D78"/>
</g>
<path id="Vector_8" d="M59.3641 27.3054C56.514 19.7409 51.1516 18.1519 47.1542 18.1519C41.9174 18.1519 37.0284 20.7879 35.789 21.5088C35.6927 21.5363 35.5984 21.5776 35.5081 21.6286C26.1455 26.9518 6.36409 34.922 6.16571 35.0045C5.65202 35.2088 5.31711 35.7116 5.3249 36.2656C5.3327 36.8195 5.68043 37.3105 6.20104 37.503C18.3236 41.9894 28.5662 44.264 36.6434 44.264C36.6454 44.264 36.6434 44.264 36.6434 44.264C43.0114 44.264 48.1813 42.8536 52.0098 40.0722C55.7517 37.3499 58.2444 33.3112 59.4191 28.0694C59.4762 27.8161 59.4564 27.549 59.3641 27.3054Z" fill="#AAB2BC"/>
<path id="Vector_9" d="M54.9779 5.33508C54.9779 6.07569 54.3787 6.67675 53.6382 6.67675C52.8978 6.67675 52.2967 6.07569 52.2967 5.33508C52.2967 4.59459 52.8978 3.99353 53.6382 3.99353C54.3788 3.99353 54.9779 4.59472 54.9779 5.33508Z" fill="#434A54"/>
</g>
</svg>
