<svg width="57" height="42" viewBox="0 0 57 42" fill="none" xmlns="http://www.w3.org/2000/svg">
<g id="gay-k&#196;&#177;zan">
<path id="Vector" d="M0 34.8361C0 38.334 2.83575 41.1699 6.33333 41.1699H50.6667C54.1643 41.1699 57 38.334 57 34.8361V34.0444H0V34.8361Z" fill="#880082"/>
<path id="Vector_2" d="M0 27.0297H57V34.3136H0V27.0297Z" fill="#3558A0"/>
<path id="Vector_3" d="M0 20.3159H57V27.4414H0V20.3159Z" fill="#138F3E"/>
<path id="Vector_4" d="M0 13.4594H57V20.585H0V13.4594Z" fill="#FAD220"/>
<path id="Vector_5" d="M0 6.60303H57V13.7286H0V6.60303Z" fill="#FF5000"/>
<path id="Vector_6" d="M50.6667 0H6.33333C2.83575 0 0 2.83598 0 6.33385V6.85639H57V6.33385C57 2.83598 54.1643 0 50.6667 0Z" fill="#FF000E"/>
</g>
</svg>
