<svg width="59" height="59" viewBox="0 0 59 59" fill="none" xmlns="http://www.w3.org/2000/svg">
<g id="g&#195;&#188;ler-y&#195;&#188;zl&#195;&#188;-d&#195;&#188;r&#195;&#188;m">
<path id="Vector" d="M43.0421 21.6707L42.7565 21.3731L27.6857 5.7489C32.3044 11.3583 31.2359 19.0626 25.0333 23.3843C19.0063 27.5827 10.2678 27.1022 4.69873 22.5138L13.278 31.6136L17.3239 35.8292C19.3231 37.9122 22.4531 38.8237 24.7608 38.7588C26.499 38.7109 27.7711 38.1106 27.7284 37.0332C27.7054 36.4141 28.0386 35.9181 28.5934 35.5265C30.3759 34.2661 34.5104 34.1105 36.9773 34.6253C37.7849 34.7929 38.5481 34.7638 39.267 34.603C41.4549 34.1139 43.1947 32.2909 44.2468 30.1549C45.3104 27.9932 45.6699 25.5305 45.0872 23.846L45.0708 23.7861L43.0421 21.6707Z" fill="#FFCC4D"/>
<path id="Vector_2" d="M31.08 28.4806C30.4415 27.8154 29.245 27.6461 28.4062 28.1044C27.5675 28.561 27.4067 29.4708 28.0452 30.1378C28.6836 30.8048 29.8802 30.9724 30.7189 30.514C31.5576 30.0557 31.7201 29.1459 31.08 28.4806Z" fill="#FFAC33"/>
<path id="Vector_3" d="M40.0137 26.4472C39.3752 25.7819 38.5349 25.9837 38.1344 26.8986C37.7355 27.8136 37.9292 29.0945 38.5677 29.7598C39.2062 30.425 40.0465 30.2232 40.447 29.3083C40.8459 28.3933 40.6522 27.1141 40.0137 26.4472Z" fill="#D99E82"/>
<path id="Vector_4" d="M35.8218 18.9667C35.3819 19.8406 34.5103 20.0082 33.8702 19.3429C33.2301 18.6777 33.0692 17.4309 33.5091 16.557C33.9474 15.6831 34.8206 15.5155 35.4607 16.1808C36.1008 16.8461 36.2616 18.0928 35.8218 18.9667Z" fill="#FFAC33"/>
<path id="Vector_5" d="M20.7937 34.6253C19.8351 34.9588 18.5418 34.6886 17.9033 34.0233C17.2648 33.3581 17.5225 32.5491 18.481 32.2157C19.4396 31.8822 20.733 32.1524 21.3714 32.8176C22.0099 33.4846 21.7522 34.2935 20.7937 34.6253Z" fill="#D99E82"/>
<path id="Vector_6" d="M39.2686 34.6031C38.5497 34.7638 37.7865 34.7946 36.9789 34.6253C34.512 34.1105 30.3791 34.2679 28.595 35.5266L49.9685 57.7965C54.0489 56.3463 56.419 52.6044 56.4715 52.5257L39.2686 34.6031ZM55.4473 34.6561L55.4768 34.6253L49.696 28.602C48.0547 24.9884 50.9681 22.731 49.8126 21.527C48.703 20.371 45.3563 21.5732 43.0437 21.6707L45.0724 23.7845C45.6846 25.4707 45.3252 27.9693 44.2501 30.1549L58.904 45.4234C59.3323 39.8875 56.6586 36.0755 55.4473 34.6561Z" fill="#BDBDBD"/>
<path id="Vector_7" d="M24.761 38.7604C22.4549 38.8236 19.3232 37.9121 17.324 35.8308L14.4336 32.8192C14.1448 33.7222 14.4336 35.2289 15.0114 35.8308C16.1669 37.0348 13.8542 41.8524 18.4779 44.262C21.58 45.8781 25.4142 44.262 27.7269 46.6717C27.7269 46.6717 35.085 54.3777 35.8203 55.1045C36.5556 55.8314 39.6512 58.2906 43.8629 58.6668L24.761 38.7604Z" fill="#808285"/>
<path id="Vector_8" d="M28.595 35.5265C28.0402 35.9181 27.7054 36.4141 27.73 37.0332C27.771 38.1106 26.499 38.7108 24.7625 38.7587L43.866 58.6635C47.4162 58.9474 49.8503 57.8409 49.9685 57.7947L28.595 35.5265Z" fill="#A6A6A6"/>
<path id="Vector_9" d="M44.2484 30.1548C43.1963 32.2908 41.4565 34.1138 39.2686 34.603L56.4714 52.5273C58.6823 49.2763 58.8891 45.5909 58.9023 45.4233L44.2484 30.1548Z" fill="#D8D8D8"/>
<path id="Vector_10" d="M5.0499 11.2694C5.16315 10.7495 5.38638 10.2348 5.76389 9.84141C6.82419 8.73664 8.18322 7.64897 9.99362 7.6045C11.1606 7.57543 12.5131 7.76013 14.0986 8.75887L25.7012 8.85977C25.3008 8.16544 24.8133 7.49505 24.2125 6.86912C20.0632 2.54579 12.6657 1.84975 7.69246 5.31628C5.3437 6.95121 3.9699 9.22233 3.59403 11.6183C4.01422 11.2643 4.5575 11.1326 5.0499 11.2694ZM25.7177 8.89055L25.7029 8.86319H25.6963L25.7177 8.89055ZM4.7282 15.4337C4.69045 15.4012 4.64449 15.3875 4.60838 15.3499C4.39337 15.1259 4.27683 14.8471 4.20789 14.5598C3.98303 14.4999 3.77458 14.3871 3.58583 14.2366C3.45616 13.3832 3.46108 12.5144 3.58583 11.6696C3.30844 13.508 3.6285 15.4149 4.56735 17.1678L4.56571 17.1644C4.43276 16.5881 4.47215 15.9775 4.7282 15.4337Z" fill="#FFAC33"/>
<path id="Vector_11" d="M3.58961 11.6216L3.58594 11.6702L3.59513 11.6199L3.58961 11.6216Z" fill="#C1694F"/>
<path id="Vector_12" d="M27.6857 5.74885C27.4608 5.47522 27.236 5.20159 26.9832 4.93822C21.5553 -0.715625 11.85 -1.68017 5.37823 2.90482C-0.916305 7.36497 -1.84038 15.9159 3.42668 21.3491C3.82717 21.763 4.25392 22.1477 4.69708 22.512C10.2661 27.1004 19.0063 27.581 25.0316 23.3825C31.2359 19.0626 32.3044 11.3582 27.6857 5.74885ZM25.7029 8.86308L25.7177 8.89044C28.0616 12.9897 26.9635 18.0177 22.7206 20.9746C17.7474 24.4411 10.3499 23.7451 6.1989 19.42C5.52267 18.7154 4.98924 17.9561 4.56577 17.1677C3.62692 15.4148 3.30686 13.5079 3.58425 11.6695L3.58753 11.6216L3.59246 11.6182C3.96996 9.22222 5.34377 6.9511 7.69252 5.31617C12.6674 1.85135 20.0633 2.54568 24.2143 6.87072C24.815 7.49665 25.3025 8.16704 25.7029 8.86137" fill="#FFE8B6"/>
<path id="Vector_13" d="M22.7206 20.9745C26.9634 18.0176 28.0615 12.9897 25.7177 8.89042L25.6963 8.86305H25.7029L25.7012 8.85963L14.0986 8.75873C12.5114 7.75999 11.159 7.57529 9.99361 7.60436C8.18322 7.64883 6.82419 8.7365 5.76388 9.84127C5.38637 10.2346 5.16315 10.7494 5.0499 11.2693C4.5575 11.1325 4.01421 11.2641 3.59239 11.6181L3.58418 11.6677C3.45944 12.5126 3.45452 13.3813 3.58418 14.2347C3.77458 14.3869 3.98303 14.4998 4.20789 14.5597C4.27847 14.847 4.39336 15.1257 4.60838 15.3498C4.64449 15.3874 4.69044 15.4011 4.7282 15.4336C4.47215 15.9774 4.43275 16.5879 4.5657 17.1643L4.56734 17.1677C4.98917 17.9561 5.52425 18.7171 6.20048 19.42C10.3498 23.745 17.7473 24.4411 22.7206 20.9745Z" fill="#C1694F"/>
<path id="Vector_14" d="M14.0986 9.11957L26.046 9.58303C25.8424 9.11102 25.5847 8.63559 25.2516 8.15674C20.9841 4.86978 14.5057 4.5876 10.0035 7.72407L9.99365 7.78392C11.159 7.75656 12.5115 8.12083 14.0986 9.11957Z" fill="#F4900C"/>
<path id="Vector_15" d="M9.23194 14.6468C10.1348 14.6468 10.8667 13.8842 10.8667 12.9434C10.8667 12.0027 10.1348 11.2401 9.23194 11.2401C8.32908 11.2401 7.59717 12.0027 7.59717 12.9434C7.59717 13.8842 8.32908 14.6468 9.23194 14.6468Z" fill="#D99E82"/>
<path id="Vector_16" d="M11.5447 19.1121C12.899 19.1121 13.9969 17.9682 13.9969 16.5571C13.9969 15.146 12.899 14.0021 11.5447 14.0021C10.1904 14.0021 9.09253 15.146 9.09253 16.5571C9.09253 17.9682 10.1904 19.1121 11.5447 19.1121Z" fill="#D99E82"/>
<path id="Vector_17" d="M16.1685 19.4644C17.0713 19.4644 17.8032 18.7018 17.8032 17.7611C17.8032 16.8203 17.0713 16.0577 16.1685 16.0577C15.2656 16.0577 14.5337 16.8203 14.5337 17.7611C14.5337 18.7018 15.2656 19.4644 16.1685 19.4644Z" fill="#D99E82"/>
<path id="Vector_18" d="M6.92115 12.5913C7.37258 12.5913 7.73854 12.21 7.73854 11.7396C7.73854 11.2692 7.37258 10.8879 6.92115 10.8879C6.46972 10.8879 6.10376 11.2692 6.10376 11.7396C6.10376 12.21 6.46972 12.5913 6.92115 12.5913Z" fill="#D99E82"/>
<path id="Vector_19" d="M12.7002 23.0782C13.6031 23.0782 14.335 22.3156 14.335 21.3748C14.335 20.4341 13.6031 19.6715 12.7002 19.6715C11.7973 19.6715 11.0654 20.4341 11.0654 21.3748C11.0654 22.3156 11.7973 23.0782 12.7002 23.0782Z" fill="#D99E82"/>
<path id="Vector_20" d="M10.3892 10.6795C11.7435 10.6795 12.8413 9.53555 12.8413 8.12446C12.8413 6.71337 11.7435 5.56946 10.3892 5.56946C9.03488 5.56946 7.93701 6.71337 7.93701 8.12446C7.93701 9.53555 9.03488 10.6795 10.3892 10.6795Z" fill="#FFD983"/>
<path id="Vector_21" d="M17.3256 21.3748C16.6872 20.7095 15.6531 20.7095 15.013 21.3748C14.5518 21.8554 14.4369 22.5463 14.6388 23.1448C15.6712 23.2047 16.7101 23.1534 17.7294 22.9789C17.8607 22.4197 17.7442 21.8126 17.3256 21.3748Z" fill="#D99E82"/>
<path id="Vector_22" d="M26.5744 11.7396C25.936 11.0744 24.9003 11.0744 24.2618 11.7396C24.0501 11.9602 23.9155 12.227 23.8432 12.5092C23.5741 12.5827 23.3164 12.7247 23.1046 12.9436C23.7431 12.2783 23.7448 11.1975 23.1063 10.5322C23.7382 9.87382 23.7513 8.79983 23.1211 8.14141L23.0948 8.11405C22.4612 7.45392 21.4288 7.46076 20.7936 8.1226C20.5786 7.89857 20.3127 7.77886 20.037 7.70532C19.9664 7.41801 19.8515 7.14267 19.6349 6.91864C19.2541 6.52188 18.7321 6.36796 18.2381 6.44321C18.1429 5.7369 17.8458 5.05283 17.3238 4.509C16.0485 3.18019 13.9804 3.18019 12.7018 4.51242C11.4232 5.84465 11.4232 7.99947 12.7002 9.32999C13.5734 10.2381 14.8093 10.5117 15.9156 10.1799C15.9862 10.3048 16.0666 10.4262 16.1683 10.534C15.5299 11.1992 15.5299 12.2783 16.1683 12.9436C16.5393 13.3301 17.0415 13.484 17.5241 13.4224C17.6324 13.7422 17.8015 14.0432 18.0477 14.2981C18.6976 14.9753 19.6463 15.148 20.4506 14.8231C20.5294 15.0146 20.6426 15.1959 20.792 15.3532C20.1535 16.0185 20.1535 17.0976 20.792 17.7629C21.4305 18.4281 22.4645 18.4281 23.1046 17.7629C23.2277 17.8911 23.3673 17.9852 23.5133 18.0639L23.5626 18.0912C24.1699 18.3905 24.9134 18.2862 25.4157 17.7629C26.0541 17.0976 26.0541 16.0185 25.4157 15.3532C25.5699 15.1925 25.6832 15.0061 25.762 14.8094C25.7636 14.741 25.7603 14.6743 25.7603 14.6059C26.0574 14.5392 26.3397 14.3887 26.5712 14.1476C27.2129 13.4823 27.2129 12.4032 26.5744 11.7396Z" fill="#77B255"/>
<path id="Vector_23" d="M24.262 13.7953C24.7134 13.7953 25.0794 13.414 25.0794 12.9436C25.0794 12.4732 24.7134 12.0919 24.262 12.0919C23.8105 12.0919 23.4446 12.4732 23.4446 12.9436C23.4446 13.414 23.8105 13.7953 24.262 13.7953Z" fill="#A6D388"/>
<path id="Vector_24" d="M20.7937 21.8741C21.6966 21.8741 22.4285 21.1115 22.4285 20.1707C22.4285 19.23 21.6966 18.4674 20.7937 18.4674C19.8908 18.4674 19.1589 19.23 19.1589 20.1707C19.1589 21.1115 19.8908 21.8741 20.7937 21.8741Z" fill="#FFD983"/>
<path id="Vector_25" d="M20.216 14.7494C19.415 13.9148 18.2037 13.7882 17.2665 14.3492C17.1467 14.0585 16.9776 13.7831 16.7478 13.5454C16.5197 13.3077 16.2554 13.1298 15.9764 13.005C16.5148 12.0285 16.3933 10.7664 15.5923 9.9318C14.6338 8.93305 13.0827 8.93305 12.1242 9.9318C11.1656 10.9305 11.1656 12.5467 12.1242 13.5454C12.3523 13.7831 12.6166 13.961 12.8956 14.0858C12.3573 15.0623 12.4787 16.3244 13.2797 17.159C14.0807 17.9936 15.292 18.1201 16.2292 17.5592C16.349 17.8499 16.518 18.1253 16.7478 18.363C17.7064 19.3617 19.2574 19.3617 20.216 18.363C21.1745 17.3659 21.1745 15.7481 20.216 14.7494Z" fill="#FFD983"/>
<path id="Vector_26" d="M17.0366 18.3853C18.1652 18.3853 19.0801 17.432 19.0801 16.2561C19.0801 15.0802 18.1652 14.127 17.0366 14.127C15.9081 14.127 14.9932 15.0802 14.9932 16.2561C14.9932 17.432 15.9081 18.3853 17.0366 18.3853Z" fill="#FFE8B6"/>
<path id="Vector_27" d="M14.7241 13.92C15.4013 13.92 15.9502 13.348 15.9502 12.6425C15.9502 11.9369 15.4013 11.365 14.7241 11.365C14.047 11.365 13.498 11.9369 13.498 12.6425C13.498 13.348 14.047 13.92 14.7241 13.92Z" fill="#FFE8B6"/>
<path id="Vector_28" d="M12.4114 11.5105C13.0885 11.5105 13.6375 10.9385 13.6375 10.2329C13.6375 9.5274 13.0885 8.95544 12.4114 8.95544C11.7342 8.95544 11.1853 9.5274 11.1853 10.2329C11.1853 10.9385 11.7342 11.5105 12.4114 11.5105Z" fill="#FFE8B6"/>
<path id="Vector_29" d="M13.8574 7.77206C14.3089 7.77206 14.6748 7.39076 14.6748 6.92039C14.6748 6.45003 14.3089 6.06873 13.8574 6.06873C13.406 6.06873 13.04 6.45003 13.04 6.92039C13.04 7.39076 13.406 7.77206 13.8574 7.77206Z" fill="#A6D388"/>
<path id="Vector_30" d="M24.2617 11.0333C25.1646 11.0333 25.8965 10.2707 25.8965 9.32992C25.8965 8.3892 25.1646 7.62659 24.2617 7.62659C23.3589 7.62659 22.627 8.3892 22.627 9.32992C22.627 10.2707 23.3589 11.0333 24.2617 11.0333Z" fill="#77B255"/>
<path id="Vector_31" d="M23.1065 14.6468C24.0093 14.6468 24.7412 13.8842 24.7412 12.9434C24.7412 12.0027 24.0093 11.2401 23.1065 11.2401C22.2036 11.2401 21.4717 12.0027 21.4717 12.9434C21.4717 13.8842 22.2036 14.6468 23.1065 14.6468Z" fill="#A6D388"/>
<path id="Vector_32" d="M21.3713 8.72811C21.0119 8.35358 20.5704 8.121 20.1075 8.02694C20.0845 7.62505 19.9319 7.22999 19.6381 6.92216C18.9996 6.2569 17.9656 6.2569 17.3254 6.92216C16.687 6.2569 15.6529 6.2569 15.0128 6.92216C14.3743 7.58742 14.3743 8.66483 15.0128 9.3318C15.6513 9.99877 16.6853 9.99706 17.3254 9.3318C17.3599 9.36772 17.4009 9.39508 17.4387 9.42757C16.9972 10.3784 17.1449 11.5516 17.9032 12.3434C18.8617 13.3422 20.4128 13.3422 21.3713 12.3434C22.3299 11.343 22.3299 9.72685 21.3713 8.72811Z" fill="#A6D388"/>
<path id="Vector_33" d="M17.0366 6.69295C17.7138 6.69295 18.2627 6.12099 18.2627 5.41544C18.2627 4.7099 17.7138 4.13794 17.0366 4.13794C16.3595 4.13794 15.8105 4.7099 15.8105 5.41544C15.8105 6.12099 16.3595 6.69295 17.0366 6.69295Z" fill="#DD2E44"/>
<path id="Vector_34" d="M23.9729 11.5105C24.6501 11.5105 25.199 10.9385 25.199 10.2329C25.199 9.5274 24.6501 8.95544 23.9729 8.95544C23.2958 8.95544 22.7468 9.5274 22.7468 10.2329C22.7468 10.9385 23.2958 11.5105 23.9729 11.5105Z" fill="#DD2E44"/>
<path id="Vector_35" d="M23.1065 17.0566C24.0093 17.0566 24.7412 16.294 24.7412 15.3532C24.7412 14.4125 24.0093 13.6499 23.1065 13.6499C22.2036 13.6499 21.4717 14.4125 21.4717 15.3532C21.4717 16.294 22.2036 17.0566 23.1065 17.0566Z" fill="#DD2E44"/>
<path id="Vector_36" d="M21.9492 4.51079C21.3107 3.84553 20.2751 3.84553 19.6366 4.51079C18.9981 5.17604 18.9981 6.25517 19.6366 6.92043C18.9981 7.58569 18.9981 8.66481 19.6366 9.33007C20.2751 9.99533 21.3091 9.99533 21.9492 9.33007C22.5877 8.66481 22.5877 7.58569 21.9492 6.92043C22.5877 6.25517 22.5877 5.17604 21.9492 4.51079Z" fill="#77B255"/>
<path id="Vector_37" d="M19.6365 11.0333C20.5393 11.0333 21.2713 10.2707 21.2713 9.32992C21.2713 8.3892 20.5393 7.62659 19.6365 7.62659C18.7336 7.62659 18.0017 8.3892 18.0017 9.32992C18.0017 10.2707 18.7336 11.0333 19.6365 11.0333Z" fill="#DD2E44"/>
<path id="Vector_38" d="M21.9492 6.56808C22.4007 6.56808 22.7666 6.18678 22.7666 5.71641C22.7666 5.24605 22.4007 4.86475 21.9492 4.86475C21.4978 4.86475 21.1318 5.24605 21.1318 5.71641C21.1318 6.18678 21.4978 6.56808 21.9492 6.56808Z" fill="#DD2E44"/>
<path id="Vector_39" d="M45.0035 45.5579C42.9252 47.4335 41.3412 48.4511 39.355 49.6792C38.9019 49.9602 38.2077 50.7146 39.179 51.7909C41.1216 53.9433 46.1858 54.255 49.86 50.939C53.5337 47.6236 53.7419 42.5535 51.7993 40.4011C50.828 39.3248 50.0061 39.9377 49.6807 40.3603C48.256 42.2105 47.0819 43.6822 45.0035 45.5579Z" fill="#664500"/>
<path id="Vector_40" d="M40.3445 50.0973C40.3445 50.0973 42.4554 49.2024 45.6724 46.2992C48.8893 43.3959 49.9953 41.3875 49.9953 41.3875C49.9953 41.3875 50.933 44.5823 47.1799 47.9695C43.4268 51.3566 40.3445 50.0973 40.3445 50.0973Z" fill="white"/>
<path id="Vector_41" d="M39.1493 45.7871C39.9694 45.0471 39.8844 43.6163 38.9595 42.5911C38.0346 41.566 36.62 41.3348 35.7999 42.0748C34.9798 42.8147 35.0647 44.2456 35.9897 45.2707C36.9146 46.2958 38.3292 46.527 39.1493 45.7871Z" fill="#664500"/>
<path id="Vector_42" d="M45.8308 39.758C46.6508 39.0179 46.5656 37.5871 45.6406 36.5621C44.7155 35.5371 43.3008 35.3061 42.4808 36.0461C41.6608 36.7862 41.746 38.217 42.6711 39.242C43.5961 40.267 45.0108 40.498 45.8308 39.758Z" fill="#664500"/>
</g>
</svg>
