<svg width="57" height="42" viewBox="0 0 57 42" fill="none" xmlns="http://www.w3.org/2000/svg">
<g id="kara-k&#196;&#177;zan">
<path id="Vector" d="M50.6667 0H6.33333C2.83575 0 0 2.83575 0 6.33333V34.8333C0 38.3309 2.83575 41.1667 6.33333 41.1667H50.6667C54.1643 41.1667 57 38.3309 57 34.8333V6.33333C57 2.83575 54.1643 0 50.6667 0Z" fill="#31373D"/>
<path id="Vector_2" d="M24.5417 14.25C25.8534 14.25 26.9167 13.1867 26.9167 11.875C26.9167 10.5633 25.8534 9.5 24.5417 9.5C23.2301 9.5 22.1667 10.5633 22.1667 11.875C22.1667 13.1867 23.2301 14.25 24.5417 14.25Z" fill="#31373D"/>
<path id="Vector_3" d="M32.4583 14.25C33.7699 14.25 34.8333 13.1867 34.8333 11.875C34.8333 10.5633 33.7699 9.5 32.4583 9.5C31.1466 9.5 30.0833 10.5633 30.0833 11.875C30.0833 13.1867 31.1466 14.25 32.4583 14.25Z" fill="#31373D"/>
<path id="Vector_4" d="M28.5001 17.4166C29.3745 17.4166 30.0834 17.0622 30.0834 16.625C30.0834 16.1878 29.3745 15.8333 28.5001 15.8333C27.6256 15.8333 26.9167 16.1878 26.9167 16.625C26.9167 17.0622 27.6256 17.4166 28.5001 17.4166Z" fill="#292F33"/>
<path id="Vector_5" d="M45.95 31.4815C45.1266 31.1822 44.2194 31.605 43.9201 32.4283L33.1281 28.5001L43.9201 24.5734C44.2194 25.3967 45.1266 25.8179 45.9484 25.5202C46.7717 25.2194 47.1945 24.3137 46.8952 23.492C46.5976 22.6702 45.6887 22.2459 44.867 22.5436C45.6887 22.2443 46.1131 21.3371 45.8138 20.5153C45.513 19.692 44.6073 19.2692 43.7856 19.5685C42.9638 19.8661 42.5395 20.7766 42.8387 21.5983L28.5001 26.817L14.1614 21.5983C14.4606 20.775 14.0379 19.8661 13.2146 19.5685C12.3912 19.2676 11.4856 19.692 11.1863 20.5153C10.8871 21.3371 11.3098 22.2459 12.1331 22.5436C11.3098 22.2443 10.4026 22.6686 10.1049 23.492C9.80564 24.3153 10.2284 25.221 11.0517 25.5202C11.8751 25.8179 12.7807 25.3967 13.08 24.5734L23.872 28.5001L13.0816 32.4267C12.7823 31.6034 11.8735 31.1806 11.0517 31.4799C10.23 31.7791 9.80722 32.6864 10.1049 33.5081C10.4041 34.3299 11.313 34.7542 12.1347 34.455C11.3114 34.7558 10.8886 35.6631 11.1879 36.4848C11.4856 37.3081 12.396 37.7293 13.2161 37.4316C14.0379 37.1324 14.4622 36.2236 14.163 35.4018L28.5001 30.1863L42.8371 35.4034C42.5363 36.2267 42.9622 37.134 43.784 37.4332C44.6057 37.7309 45.5146 37.3097 45.8122 36.4864C46.1115 35.6646 45.6887 34.7558 44.8654 34.4566C45.6887 34.7574 46.596 34.3331 46.8952 33.5097C47.1945 32.688 46.7701 31.7791 45.95 31.4815Z" fill="#E6E7E8"/>
<path id="Vector_6" d="M28.5 3.16669C22.1667 3.16669 19 8.2951 19 12.6667C19 14.8739 20.3094 16.4651 22.1667 17.5022V20.5834C22.1667 21.4589 22.876 22.1667 23.75 22.1667C24.624 22.1667 25.3333 21.4589 25.3333 20.5834V18.658C25.8558 18.772 26.3863 18.8591 26.9167 18.9145V20.5834C26.9167 21.4589 27.626 22.1667 28.5 22.1667C29.374 22.1667 30.0833 21.4589 30.0833 20.5834V18.9145C30.6138 18.8575 31.1442 18.772 31.6667 18.658V20.5834C31.6667 21.4589 32.3744 22.1667 33.25 22.1667C34.1256 22.1667 34.8333 21.4589 34.8333 20.5834V17.5022C36.6906 16.4667 38 14.8754 38 12.6667C38 8.2951 34.8333 3.16669 28.5 3.16669ZM24.5417 14.25C23.2291 14.25 22.1667 14.25 22.1667 11.875C22.1667 10.5624 23.2291 9.50002 24.5417 9.50002C26.9167 9.50002 26.9167 10.5624 26.9167 11.875C26.9167 13.1876 25.8542 14.25 24.5417 14.25ZM28.5 17.4167C27.626 17.4167 26.9167 17.062 26.9167 16.625C26.9167 16.188 27.626 15.8334 28.5 15.8334C29.374 15.8334 30.0833 16.188 30.0833 16.625C30.0833 17.062 29.374 17.4167 28.5 17.4167ZM32.4583 14.25C31.1473 14.25 30.0833 13.1876 30.0833 11.875C30.0833 10.5624 30.0833 9.50002 32.4583 9.50002C33.7693 9.50002 34.8333 10.5624 34.8333 11.875C34.8333 14.25 33.7693 14.25 32.4583 14.25Z" fill="#E6E7E8"/>
</g>
</svg>
