<svg width="59" height="59" viewBox="0 0 59 59" fill="none" xmlns="http://www.w3.org/2000/svg">
<g id="knife">
<path id="Vector" d="M58.7641 56.7183L32.3286 24.6732C32.3286 24.6732 23.0608 30.7432 19.6871 40.5815C19.6871 40.5815 27.3601 49.2821 35.7828 54.1042C46.2525 60.0986 54.9235 58.7981 58.312 58.0353C58.9071 57.9021 59.1521 57.1918 58.7641 56.7183Z" fill="#CCD6DD"/>
<path id="Vector_2" d="M29.4926 21.2075L22.8587 27.0588C22.9672 27.1048 23.3782 27.7987 23.1447 28.8788C22.4838 31.9451 19.2877 35.9287 18.2552 37.2605C17.9362 37.6715 17.8869 38.3965 18.2979 38.9161L19.6872 40.5816C22.6811 34.0643 30.4659 26.2877 32.3287 24.6732L29.4926 21.2075Z" fill="#AAB8C2"/>
<path id="Vector_3" d="M29.4927 21.2074C29.4927 21.2074 24.0342 14.2759 20.0177 9.72175C16.0012 5.16759 13.2769 2.55183 10.6743 0.87813C8.01905 -0.828448 5.18298 0.162945 3.03907 2.05202C0.895159 3.94109 -1.40494 8.18123 1.07601 10.9943C2.43404 12.5348 5.65483 11.1225 7.3088 12.9984C8.43172 14.271 9.00387 15.2426 13.004 19.343C19.1841 25.6794 22.8587 27.0572 22.8587 27.0572C22.8587 27.0572 24.9155 25.344 26.0351 24.3477C27.1564 23.3546 29.4927 21.2074 29.4927 21.2074Z" fill="#31373D"/>
<path id="Vector_4" d="M18.8831 19.4038C20.1226 19.4038 21.1273 18.399 21.1273 17.1596C21.1273 15.9202 20.1226 14.9154 18.8831 14.9154C17.6437 14.9154 16.6389 15.9202 16.6389 17.1596C16.6389 18.399 17.6437 19.4038 18.8831 19.4038Z" fill="#F5F8FA"/>
<path id="Vector_5" d="M9.4873 9.72015C10.7267 9.72015 11.7315 8.71539 11.7315 7.47595C11.7315 6.23651 10.7267 5.23175 9.4873 5.23175C8.24786 5.23175 7.2431 6.23651 7.2431 7.47595C7.2431 8.71539 8.24786 9.72015 9.4873 9.72015Z" fill="#F5F8FA"/>
</g>
</svg>
